#!OML:ASF H:\Terrain\Patient Classification 1\PLAYGROUND\JustinFriday\JustinFriday.ASF
:FULLY-SPECIFIED
:DEGREES
1028
root -8.19745 16.4802 9.18931 -2.87344 -50.3225 -26.079
lowerback 14.6415 7.1103 7.76173
upperback -6.27401 10.6649 -4.02583
thorax -12.9979 4.09263 -11.4447
lowerneck 8.18837 -16.0459 33.7744
upperneck 15.5773 -19.8268 -0.0846677
head 1.27021 -8.48127 -3.98569
rclavicle 4.92986e-014 -2.54444e-014
rhumerus 62.1581 -26.8845 -81.021
rradius 72.8249
rwrist -431.496
rhand 4.34245 -19.9713
rfingers 7.12502
rthumb 29.7426 -47.6049
lclavicle 4.92986e-014 -2.54444e-014
lhumerus 64.1843 -36.8624 79.1406
lradius 75.9738
lwrist 4.29306
lhand -11.8143 -10.9203
lfingers 7.12502
lthumb 14.2359 18.5718
rfemur -2.94009 -14.6633 8.13955
rtibia 104.105
rfoot 1.72162 -0.476651
rtoes 3.41939
lfemur -1.70509 12.8092 -4.80958
ltibia 99.5761
lfoot -5.97123 -10.5684
ltoes 1.47218
1029
root -8.32306 16.5208 9.18409 -2.60651 -50.0207 -27.3672
lowerback 15.0785 7.01627 8.35877
upperback -6.47289 10.7606 -3.67637
thorax -13.4477 4.04655 -11.5055
lowerneck 8.44407 -16.3271 32.9588
upperneck 16.1928 -20.288 0.118799
head 1.45047 -8.68984 -3.82258
rclavicle -5.40694e-014 1.59028e-014
rhumerus 60.947 -26.6891 -80.6372
rradius 73.4409
rwrist -431.236
rhand 4.35842 -20.5147
rfingers 7.12502
rthumb 29.7578 -48.1456
lclavicle -5.40694e-014 1.59028e-014
lhumerus 62.8168 -37.0996 80.1833
lradius 76.0208
lwrist 4.1638
lhand -11.7093 -11.189
lfingers 7.12502
lthumb 14.3372 18.296
rfemur -2.86853 -14.2353 9.09042
rtibia 104.027
rfoot 1.75623 -0.882037
rtoes 1.83978
lfemur -1.21165 13.0673 -3.89995
ltibia 99.4454
lfoot -6.32181 -10.4789
ltoes -0.603093
1030
root -8.44438 16.5716 9.16318 -2.09664 -49.5148 -28.398
lowerback 14.7915 6.84972 8.84383
upperback -6.48145 10.6305 -3.5781
thorax -13.2542 3.97073 -11.5797
lowerneck 8.8965 -16.2511 32.8326
upperneck 16.0999 -20.0389 0.332348
head 1.4245 -8.58185 -3.73437
rclavicle 1.27222e-014 5.725e-014
rhumerus 60.5665 -26.6245 -80.8629
rradius 74.0202
rwrist -430.892
rhand 4.40555 -20.9678
rfingers 7.12502
rthumb 29.8028 -48.5906
lclavicle 1.27222e-014 5.725e-014
lhumerus 62.5416 -37.1245 80.131
lradius 76.1664
lwrist 4.27258
lhand -11.4595 -11.1731
lfingers 7.12502
lthumb 14.5778 18.2946
rfemur -3.41288 -14.1951 10.02
rtibia 104.065
rfoot 1.87358 -1.25623
rtoes 1.74573
lfemur -1.66286 13.1659 -3.22802
ltibia 99.5287
lfoot -6.30096 -10.6706
ltoes -0.312552
1031
root -8.56724 16.6239 9.14139 -2.55544 -48.8741 -28.0421
lowerback 14.3437 6.77268 8.23645
upperback -6.11103 10.3276 -3.66808
thorax -12.6974 3.9515 -11.1607
lowerneck 8.34599 -15.938 33.0314
upperneck 15.8097 -19.8042 0.53373
head 1.43867 -8.46662 -3.74686
rclavicle -2.70347e-014 -3.18055e-015
rhumerus 61.0728 -26.5002 -81.2407
rradius 74.485
rwrist -430.37
rhand 4.23523 -20.6853
rfingers 7.12502
rthumb 29.6403 -48.3371
lclavicle -2.70347e-014 -3.18055e-015
lhumerus 63.3623 -36.9145 79.257
lradius 76.8004
lwrist 4.64348
lhand -11.4199 -10.486
lfingers 7.12502
lthumb 14.616 18.9789
rfemur -4.07573 -14.5455 9.53109
rtibia 104.226
rfoot 1.91444 -1.05009
rtoes 1.99107
lfemur -2.3554 13.1597 -3.86468
ltibia 99.6159
lfoot -6.06818 -10.4566
ltoes 1.67447
1032
root -8.69373 16.6646 9.13067 -2.59348 -48.4522 -28.9637
lowerback 14.6911 6.63961 8.50894
upperback -5.88477 10.2524 -3.46208
thorax -12.6546 3.91407 -11.0987
lowerneck 8.15776 -15.8958 33.5397
upperneck 15.5051 -19.6976 0.292182
head 1.32185 -8.42406 -3.86843
rclavicle -3.33958e-014 -1.27222e-014
rhumerus 61.4677 -26.3958 -81.1497
rradius 74.4272
rwrist -430.226
rhand 4.02678 -19.3201
rfingers 7.12502
rthumb 29.4413 -47.0071
lclavicle -3.33958e-014 -1.27222e-014
lhumerus 63.4438 -36.9026 78.936
lradius 77.3989
lwrist 4.75137
lhand -11.5371 -9.54979
lfingers 7.12502
lthumb 14.503 19.9233
rfemur -4.10888 -14.459 10.035
rtibia 104.208
rfoot 1.80864 -1.15789
rtoes -0.352791
lfemur -2.09761 13.3361 -3.14127
ltibia 99.6503
lfoot -6.15738 -10.6212
ltoes 1.86579
1033
root -8.82255 16.7126 9.13445 -2.22041 -48.1021 -30.7991
lowerback 15.2241 6.43715 9.53801
upperback -5.78528 10.3013 -3.04571
thorax -12.7646 3.86122 -11.2847
lowerneck 8.29618 -15.9538 33.6434
upperneck 15.6049 -19.7014 0.124401
head 1.31243 -8.41662 -3.92145
rclavicle 9.54166e-015 7.63333e-014
rhumerus 60.5448 -26.1764 -80.842
rradius 75.2021
rwrist -430.178
rhand 3.74164 -18.7607
rfingers 7.12502
rthumb 29.169 -46.4953
lclavicle 9.54166e-015 7.63333e-014
lhumerus 62.9869 -36.8468 78.7446
lradius 78.0109
lwrist 5.28562
lhand -11.6767 -8.79892
lfingers 7.12502
lthumb 14.3686 20.6838
rfemur -3.5939 -14.0166 11.364
rtibia 103.914
rfoot 1.82378 -1.68857
rtoes -0.342037
lfemur -1.3204 13.4719 -1.51247
ltibia 99.5695
lfoot -6.49459 -11.0689
ltoes -0.0212248
1034
root -8.94438 16.7678 9.14017 -2.6162 -47.5874 -31.2705
lowerback 15.2997 6.28884 9.7066
upperback -5.53315 10.1484 -2.91443
thorax -12.5491 3.81397 -11.1828
lowerneck 7.61811 -15.8105 34.8235
upperneck 15.8956 -19.5872 -0.962902
head 1.32232 -8.28681 -4.43417
rclavicle -3.65764e-014 9.54166e-015
rhumerus 60.2593 -26.0088 -80.857
rradius 75.7906
rwrist -429.85
rhand 3.2331 -20.5082
rfingers 7.12502
rthumb 28.6833 -48.326
lclavicle -3.65764e-014 9.54166e-015
lhumerus 63.2925 -36.5637 77.5665
lradius 79.0225
lwrist 6.40711
lhand -12.0539 -8.18772
lfingers 7.12502
lthumb 14.0051 21.3205
rfemur -3.28401 -13.7411 11.5302
rtibia 103.714
rfoot 1.5361 -1.60557
rtoes -0.0139495
lfemur -1.00099 13.4417 -1.31308
ltibia 99.4032
lfoot -6.67714 -11.0884
ltoes -0.840137
1035
root -9.05882 16.8136 9.12849 -3.48742 -47.0446 -30.497
lowerback 15.1509 6.26382 8.93914
upperback -5.61777 9.92283 -3.03684
thorax -12.7094 3.74512 -10.8458
lowerneck 8.05506 -15.9107 32.9469
upperneck 16.165 -19.9432 0.545499
head 1.58301 -8.49672 -3.77049
rclavicle -1.90833e-013 1.27222e-014
rhumerus 59.864 -25.7525 -80.8317
rradius 76.0823
rwrist -429.413
rhand 2.77006 -21.9432
rfingers 7.12502
rthumb 28.2408 -49.835
lclavicle -1.90833e-013 1.27222e-014
lhumerus 62.1298 -36.8343 79.2375
lradius 77.769
lwrist 5.67838
lhand -11.7641 -9.83338
lfingers 7.12502
lthumb 14.2843 19.6553
rfemur -3.81811 -13.6281 10.7131
rtibia 103.906
rfoot 1.30111 -1.16429
rtoes -1.62486
lfemur -1.46935 13.5086 -2.4074
ltibia 99.3091
lfoot -6.26838 -10.9593
ltoes 0.950354
